# xmcd
#
# Track frame offsets: 
#        150
#        15488
#        40208
#        62971
#        77625
#
# Disc length: 1219 seconds
#
# Revision: 3
# Processed by: cddbd v1.5.2PL0 Copyright (c) Steve Scherf et al.
# Submitted via: ExactAudioCopy v1.0b4
#
DISCID=3504c105
DTITLE=Peter Green Splinter Group - The Best Of [ disk 2]
DYEAR=2002
DGENRE=Blues Rock
TTITLE0=Albatross (Soho Live)
TTITLE1=Green Manalishi (Soho Live)
TTITLE2=Rattlesnake Shake (Soho Live)
TTITLE3=Supernatural (Soho Live)
TTITLE4=Man Of The World (Destiny Road)
EXTD=
EXTT0=
EXTT1=
EXTT2=
EXTT3=
EXTT4=
PLAYORDER=
